{
  "accessors": [
    {
      "bufferView": 2,
      "componentType": 5126,
      "count": 12726,
      "max": [
        0.9942352771759033,
        7.561496734619141,
        2.1808793544769287
      ],
      "min": [
        -0.9942352175712585,
        -7.2182722091674805,
        -2.224639892578125
      ],
      "type": "VEC3"
    },
    {
      "bufferView": 2,
      "byteOffset": 152712,
      "componentType": 5126,
      "count": 12726,
      "max": [
        1.0,
        1.0,
        1.0
      ],
      "min": [
        -1.0,
        -1.0,
        -1.0
      ],
      "type": "VEC3"
    },
    {
      "bufferView": 1,
      "componentType": 5126,
      "count": 12726,
      "max": [
        0.9999995231628418,
        0.999862790107727
      ],
      "min": [
        0.0,
        0.0
      ],
      "type": "VEC2"
    },
    {
      "bufferView": 0,
      "componentType": 5125,
      "count": 46422,
      "type": "SCALAR"
    },
    {
      "bufferView": 2,
      "byteOffset": 305424,
      "componentType": 5126,
      "count": 120,
      "max": [
        0.13501930236816406,
        0.41385748982429504,
        0.00500129209831357
      ],
      "min": [
        -17.323200225830078,
        -0.629741907119751,
        -0.0050000352784991264
      ],
      "type": "VEC3"
    },
    {
      "bufferView": 2,
      "byteOffset": 306864,
      "componentType": 5126,
      "count": 120,
      "max": [
        0.9542902708053589,
        1.0,
        1.0
      ],
      "min": [
        -1.0,
        -1.0,
        -1.0
      ],
      "type": "VEC3"
    },
    {
      "bufferView": 1,
      "byteOffset": 101808,
      "componentType": 5126,
      "count": 120,
      "max": [
        0.9733095765113831,
        0.9547065496444702
      ],
      "min": [
        0.033986181020736694,
        0.03882855176925659
      ],
      "type": "VEC2"
    },
    {
      "bufferView": 0,
      "byteOffset": 185688,
      "componentType": 5125,
      "count": 396,
      "type": "SCALAR"
    }
  ],
  "asset": {
    "extras": {
      "author": "EmilSchwer (https://sketchfab.com/EmilSc)",
      "license": "CC-BY-4.0 (http://creativecommons.org/licenses/by/4.0/)",
      "source": "https://sketchfab.com/3d-models/ignited-darksaber-starwars-97c514f02a134b499ac6e759a0a5708e",
      "title": "Ignited Darksaber | Starwars"
    },
    "generator": "Sketchfab-12.78.0",
    "version": "2.0"
  },
  "bufferViews": [
    {
      "buffer": 0,
      "byteLength": 187272,
      "name": "floatBufferViews",
      "target": 34963
    },
    {
      "buffer": 0,
      "byteLength": 102768,
      "byteOffset": 187272,
      "byteStride": 8,
      "name": "floatBufferViews",
      "target": 34962
    },
    {
      "buffer": 0,
      "byteLength": 308304,
      "byteOffset": 290040,
      "byteStride": 12,
      "name": "floatBufferViews",
      "target": 34962
    }
  ],
  "buffers": [
    {
      "byteLength": 598344,
      "uri": "scene.bin"
    }
  ],
  "images": [
    {
      "uri": "textures/M_Darksaber_baseColor.png"
    },
    {
      "uri": "textures/M_Blade_emissive.png"
    }
  ],
  "materials": [
    {
      "doubleSided": true,
      "name": "M_Darksaber",
      "pbrMetallicRoughness": {
        "baseColorTexture": {
          "index": 0
        },
        "metallicFactor": 0.6738183765182207,
        "roughnessFactor": 0.0
      }
    },
    {
      "doubleSided": true,
      "emissiveFactor": [
        1.0,
        1.0,
        1.0
      ],
      "emissiveTexture": {
        "index": 1
      },
      "name": "M_Blade",
      "pbrMetallicRoughness": {
        "baseColorFactor": [
          0.0,
          0.0,
          0.0,
          1.0
        ],
        "metallicFactor": 0.0
      }
    }
  ],
  "meshes": [
    {
      "name": "Handle_M_Darksaber_0",
      "primitives": [
        {
          "attributes": {
            "NORMAL": 1,
            "POSITION": 0,
            "TEXCOORD_0": 2
          },
          "indices": 3,
          "material": 0,
          "mode": 4
        }
      ]
    },
    {
      "name": "Blade_M_Blade_0",
      "primitives": [
        {
          "attributes": {
            "NORMAL": 5,
            "POSITION": 4,
            "TEXCOORD_0": 6
          },
          "indices": 7,
          "material": 1,
          "mode": 4
        }
      ]
    }
  ],
  "nodes": [
    {
      "children": [
        1
      ],
      "matrix": [
        0.902859628200531,
        -9.546483508540612e-17,
        0.42993539571762085,
        0.0,
        0.14557702839374542,
        0.9409296512603761,
        -0.30571016669273354,
        0.0,
        -0.40453898906707764,
        0.3386020958423613,
        0.849527418613434,
        0.0,
        3.354227066040039,
        5.4771275520324725,
        -7.053571701049804,
        1.0
      ],
      "name": "Sketchfab_model"
    },
    {
      "children": [
        2
      ],
      "matrix": [
        0.009999999776482582,
        0.0,
        0.0,
        0.0,
        0.0,
        0.0,
        0.009999999776482582,
        0.0,
        0.0,
        -0.009999999776482582,
        0.0,
        0.0,
        0.0,
        0.0,
        0.0,
        1.0
      ],
      "name": "Darksaber.fbx"
    },
    {
      "children": [
        3,
        5
      ],
      "name": "RootNode"
    },
    {
      "children": [
        4
      ],
      "matrix": [
        44.47946548461914,
        0.0,
        0.0,
        0.0,
        0.0,
        44.4794654846191,
        1.9442591865847447e-06,
        0.0,
        0.0,
        -1.9442591865847447e-06,
        44.4794654846191,
        0.0,
        0.0,
        -36.21351623535156,
        0.0,
        1.0
      ],
      "name": "Handle"
    },
    {
      "mesh": 0,
      "name": "Handle_M_Darksaber_0"
    },
    {
      "children": [
        6
      ],
      "matrix": [
        -4.371138984105016e-06,
        -99.99999999999973,
        5.960463766996327e-06,
        0.0,
        -1.6292068227841128e-05,
        -5.960463056453591e-06,
        -99.9999999999985,
        0.0,
        99.99999999999858,
        -4.371139955550163e-06,
        -1.6292067961387602e-05,
        0.0,
        0.0,
        283.9551086425781,
        0.0,
        1.0
      ],
      "name": "Blade"
    },
    {
      "mesh": 1,
      "name": "Blade_M_Blade_0"
    }
  ],
  "samplers": [
    {
      "magFilter": 9729,
      "minFilter": 9987,
      "wrapS": 10497,
      "wrapT": 10497
    }
  ],
  "scene": 0,
  "scenes": [
    {
      "name": "Sketchfab_Scene",
      "nodes": [
        0
      ]
    }
  ],
  "textures": [
    {
      "sampler": 0,
      "source": 0
    },
    {
      "sampler": 0,
      "source": 1
    }
  ]
}
